<svg width="60" height="60" viewBox="0 0 60 60" fill="none" xmlns="http://www.w3.org/2000/svg">
<path d="M56.6667 60.0002H36C34.3431 60.0002 33 58.6644 33 57.0168V29.8345C33 28.1868 34.3431 26.8511 36 26.8511H56.6667C58.3235 26.8511 59.6667 28.1868 59.6667 29.8345V57.0168C59.6667 58.6644 58.3235 60.0002 56.6667 60.0002Z" fill="#97A8EE"/>
<path d="M34.8333 0C34.0049 0 33.3333 0.667862 33.3333 1.49171V18.3977C33.3333 19.2216 34.0049 19.8895 34.8333 19.8895H58.5C59.3284 19.8895 60 19.2216 60 18.3977V1.49171C60 0.667861 59.3284 0 58.5 0H34.8333ZM0 58.1768C0 59.0007 0.671572 59.6685 1.5 59.6685H25.1667C25.9951 59.6685 26.6667 59.0007 26.6667 58.1768V41.2708C26.6667 40.4469 25.9951 39.7791 25.1667 39.7791H1.5C0.671574 39.7791 0 40.4469 0 41.2708V58.1768ZM0 31.6574C0 32.4813 0.671572 33.1492 1.5 33.1492H25.1667C25.9951 33.1492 26.6667 32.4813 26.6667 31.6574V1.49171C26.6667 0.667861 25.9951 0 25.1667 0H1.5C0.671574 0 0 0.667862 0 1.49171V31.6574Z" fill="#4A6CF7"/>
</svg>
