<svg width="60" height="60" viewBox="0 0 60 60" fill="none" xmlns="http://www.w3.org/2000/svg">
<path d="M30.8871 51.3876C30.3591 51.7758 29.6404 51.7763 29.112 51.389L6.28741 34.6619C5.75921 34.2747 5.04094 34.275 4.51306 34.6626L1.64699 36.7667C0.83056 37.3661 0.83056 38.5856 1.64699 39.185L29.1123 59.3483C29.6406 59.736 30.3594 59.736 30.8877 59.3483L58.3543 39.1839C59.1703 38.5848 59.1709 37.3661 58.3554 36.7664L55.4551 34.6334C54.9265 34.2447 54.2067 34.2446 53.6781 34.6332L30.8871 51.3876Z" fill="#97A8EE"/>
<path d="M29.1119 43.3965C29.6404 43.7844 30.3593 43.7841 30.8876 43.3959L54.5333 26.0199L58.3468 23.2325C59.1655 22.6341 59.1668 21.4125 58.3493 20.8124L30.8876 0.651695C30.3593 0.263886 29.6405 0.263889 29.1122 0.651698L1.64553 20.8161C0.829518 21.4151 0.82901 22.6338 1.64451 23.2337L5.43327 26.0199L29.1119 43.3965Z" fill="#4A6CF7"/>
</svg>
