<svg width="60" height="60" viewBox="0 0 60 60" fill="none" xmlns="http://www.w3.org/2000/svg">
<path d="M46.7253 50.5263C42.5288 50.5263 39.1229 47.3825 39.1229 43.5089C39.1229 42.5545 39.3207 41.6407 39.6974 40.8019C39.8164 40.5369 39.7653 40.2281 39.5454 40.0253L37.2219 37.8803C36.8996 37.5829 36.3619 37.6317 36.1371 37.9977C35.1406 39.6193 34.5615 41.4999 34.5615 43.5089C34.5615 49.7123 40.0048 54.7369 46.7253 54.7369V57.3379C46.7253 57.9319 47.5032 58.2294 47.9582 57.8094L53.0566 53.103C53.3387 52.8427 53.3387 52.4206 53.0566 52.1602L47.9582 47.4539C47.5032 47.0339 46.7253 47.3314 46.7253 47.9254V50.5263ZM46.7253 32.2807V29.6797C46.7253 29.0858 45.9474 28.7883 45.4924 29.2083L40.3939 33.9146C40.1118 34.175 40.1118 34.5971 40.3939 34.8574L45.4924 39.5638C45.9474 39.9838 46.7253 39.6863 46.7253 39.0923V36.4913C50.9217 36.4913 54.3276 39.6351 54.3276 43.5089C54.3276 44.4631 54.1298 45.377 53.7531 46.2157C53.6341 46.4807 53.6852 46.7895 53.9051 46.9925L56.2286 49.1373C56.5509 49.4349 57.0886 49.3861 57.3134 49.0201C58.3099 47.3983 58.889 45.5178 58.889 43.5089C58.889 37.3054 53.4458 32.2807 46.7253 32.2807Z" fill="#97A8EE"/>
<path d="M28.4798 43.5088C28.4798 47.294 29.7256 50.7959 31.8695 53.7061C32.5863 54.6792 31.8858 56.1404 30.6111 56.1404H7.1932C3.81775 56.1404 1.11133 53.6421 1.11133 50.5263V5.61404C1.11133 2.52632 3.81775 0 7.1932 0H10.2341H25.4388H43.6844C47.0295 0 49.7663 2.49824 49.7663 5.61404V23.9392C49.7663 24.6709 49.0386 25.2632 48.2459 25.2632C37.3289 25.2632 28.4798 33.4316 28.4798 43.5088Z" fill="#4A6CF7"/>
</svg>
