<svg width="60" height="60" viewBox="0 0 60 60" fill="none" xmlns="http://www.w3.org/2000/svg">
<g clip-path="url(#clip0_3848_113)">
<path d="M47.5583 36.186C50.8488 36.186 53.8401 37.344 55.9341 39.6599L58.2638 37.4055C58.7288 36.9555 59.5237 37.2742 59.5237 37.9105V47.0513C59.5237 47.4458 59.1934 47.7656 58.7856 47.7656H49.3402C48.6826 47.7656 48.3533 46.9962 48.8183 46.5463L52.9427 42.5549C51.4471 41.3969 49.6523 40.5285 47.5583 40.5285C43.3704 40.5285 40.0798 43.7128 40.0798 47.7656C40.0798 51.8185 43.3704 55.0029 47.5583 55.0029C49.7145 55.0029 51.6279 54.0628 53.0796 52.6062C53.3838 52.3009 53.7943 52.1079 54.2325 52.1079H57.5362C58.0583 52.1079 58.4133 52.6185 58.1777 53.0695C56.1917 56.8723 52.2582 59.3452 47.5583 59.3452C40.9772 59.3452 35.5928 54.1343 35.5928 47.7656C35.5928 41.3969 40.9772 36.186 47.5583 36.186Z" fill="#97A8EE"/>
<path d="M28.1142 47.7657C28.1142 44.796 28.8947 42.0783 29.9702 39.6121C30.0797 39.3613 29.8912 39.081 29.6099 39.081C23.9262 39.081 19.14 34.4491 19.14 28.9489C19.14 23.4486 23.9262 18.8167 29.6099 18.8167C35.2935 18.8167 40.0798 23.4486 40.0798 28.9489C40.0798 29.3007 40.9085 30.0077 41.2552 29.9019C43.1784 29.3151 45.1791 28.9489 47.5581 28.9489C48.8582 28.9489 50.1583 29.1676 51.4584 29.415C51.7622 29.4727 52.0452 29.2484 52.0452 28.9489C52.0452 28.3856 52.0452 27.7006 51.9637 27.0517C51.8874 26.4453 52.0835 25.8051 52.5857 25.435L58.028 21.4221C58.6263 20.8431 58.6263 20.2641 58.3271 19.6853L52.4169 9.67594C52.3686 9.59427 52.3305 9.50713 52.2935 9.42016C52.0162 8.76993 51.5298 8.69454 50.8341 8.68581C50.6463 8.68344 50.4599 8.71934 50.2855 8.78684L43.8697 11.2704C43.3761 11.4615 42.8175 11.3767 42.3832 11.08C41.2418 10.3003 39.9673 9.64951 38.6728 9.01803C38.2426 8.80819 37.9437 8.41003 37.8731 7.9489L36.898 1.57963C36.8295 1.13225 36.8808 0.55705 36.4941 0.303207C36.2346 0.132909 35.8793 0 35.5926 0H23.627C23.0649 0 22.2387 0.511186 22.1409 1.05323C22.1285 1.12226 22.126 1.19275 22.1154 1.26206L21.0677 8.10583C20.9863 8.63846 20.5985 9.07436 20.0907 9.29434C18.8456 9.8337 17.7076 10.6049 16.4474 11.2752C16.0716 11.4752 15.6218 11.4878 15.2258 11.3281L8.94269 8.79456C8.76279 8.72201 8.56963 8.68331 8.37476 8.68594C7.63648 8.69593 7.10634 8.78357 6.57619 9.55313L0.593428 19.6853C0.294289 20.2641 0.593428 20.8431 1.1917 21.4221L6.89206 25.6251C7.25852 25.8954 7.47707 26.3166 7.42583 26.7596C7.34136 27.49 7.17447 28.3001 7.17447 28.9489C7.17447 29.5211 7.17447 30.2191 7.26007 30.8771C7.33692 31.468 7.15677 32.092 6.6785 32.4667L1.1917 36.765C0.593428 37.344 0.593428 37.923 0.892567 38.502L6.87533 48.6341C7.14166 49.1496 7.6451 49.2061 8.38566 49.2123C8.57345 49.2139 8.75975 49.1784 8.93411 49.1109L15.3499 46.6274C15.8435 46.4363 16.4023 46.5211 16.8365 46.8177C17.9779 47.5974 19.2525 48.2483 20.547 48.8797C20.9771 49.0896 21.276 49.4877 21.3466 49.9489L22.4146 56.9251C22.4253 56.9944 22.4285 57.0647 22.4371 57.1343C22.5041 57.6763 23.0832 58.1873 23.9262 58.1873H28.7156C29.8805 58.1873 30.6 56.9319 30.0924 55.9173C28.8186 53.3704 28.1142 50.6533 28.1142 47.7657Z" fill="#4A6CF7"/>
</g>
<defs>
<clipPath id="clip0_3848_113">
<rect width="60" height="60" fill="white"/>
</clipPath>
</defs>
</svg>
