<svg width="364" height="201" viewBox="0 0 364 201" fill="none" xmlns="http://www.w3.org/2000/svg">
<g clip-path="url(#clip0_3847_26)">
<path d="M5.88916 72.3301C33.6598 66.4796 101.397 64.9084 150.178 105.427C211.155 156.076 229.59 162.093 264.333 166.607C299.076 171.12 337.718 183.657 362.889 212.24" stroke="url(#paint0_linear_3847_26)"/>
<path d="M-22.1108 72.3301C5.65975 66.4796 73.3964 64.9084 122.178 105.427C183.155 156.076 201.59 162.093 236.333 166.607C271.076 171.12 309.718 183.657 334.889 212.24" stroke="url(#paint1_linear_3847_26)"/>
<path d="M-53.1108 72.3301C-25.3402 66.4796 42.3964 64.9084 91.1782 105.427C152.155 156.076 170.59 162.093 205.333 166.607C240.076 171.12 278.718 183.657 303.889 212.24" stroke="url(#paint2_linear_3847_26)"/>
<path d="M-98.1616 65.0894C-68.1414 60.0606 4.73382 60.4887 56.0736 102.432C120.248 154.861 139.905 161.42 177.137 166.957C214.37 172.494 255.575 186.166 281.856 215.482" stroke="url(#paint3_linear_3847_26)"/>
<path opacity="0.8" d="M226.045 108.869C252.755 102.495 269.241 75.6755 262.868 48.9656C256.494 22.2556 229.675 5.76969 202.965 12.1432C176.255 18.5168 159.769 45.3363 166.142 72.0463C172.516 98.7562 199.335 115.242 226.045 108.869Z" stroke="url(#paint4_linear_3847_26)"/>
<path d="M220 106C243.748 106 263 86.7482 263 63C263 39.2518 243.748 20 220 20C196.252 20 177 39.2518 177 63C177 86.7482 196.252 106 220 106Z" fill="url(#paint5_radial_3847_26)"/>
</g>
<defs>
<linearGradient id="paint0_linear_3847_26" x1="184.389" y1="69.2403" x2="184.389" y2="212.24" gradientUnits="userSpaceOnUse">
<stop stop-color="#4A6CF7" stop-opacity="0"/>
<stop offset="1" stop-color="#4A6CF7"/>
</linearGradient>
<linearGradient id="paint1_linear_3847_26" x1="156.389" y1="69.2403" x2="156.389" y2="212.24" gradientUnits="userSpaceOnUse">
<stop stop-color="#4A6CF7" stop-opacity="0"/>
<stop offset="1" stop-color="#4A6CF7"/>
</linearGradient>
<linearGradient id="paint2_linear_3847_26" x1="125.389" y1="69.2403" x2="125.389" y2="212.24" gradientUnits="userSpaceOnUse">
<stop stop-color="#4A6CF7" stop-opacity="0"/>
<stop offset="1" stop-color="#4A6CF7"/>
</linearGradient>
<linearGradient id="paint3_linear_3847_26" x1="93.8509" y1="67.2679" x2="89.928" y2="210.215" gradientUnits="userSpaceOnUse">
<stop stop-color="#4A6CF7" stop-opacity="0"/>
<stop offset="1" stop-color="#4A6CF7"/>
</linearGradient>
<linearGradient id="paint4_linear_3847_26" x1="202.849" y1="11.6569" x2="221.804" y2="98.9376" gradientUnits="userSpaceOnUse">
<stop stop-color="#4A6CF7"/>
<stop offset="1" stop-color="#4A6CF7" stop-opacity="0"/>
</linearGradient>
<radialGradient id="paint5_radial_3847_26" cx="0" cy="0" r="1" gradientUnits="userSpaceOnUse" gradientTransform="translate(220 63) rotate(90) scale(43)">
<stop offset="0.145833" stop-color="white" stop-opacity="0"/>
<stop offset="1" stop-color="white" stop-opacity="0.08"/>
</radialGradient>
<clipPath id="clip0_3847_26">
<rect width="364" height="201" fill="white"/>
</clipPath>
</defs>
</svg>
